<?xml version="1.0" standalone="no"?>
<!DOCTYPE svg PUBLIC "-//W3C//DTD SVG 20010904//EN"
 "http://www.w3.org/TR/2001/REC-SVG-20010904/DTD/svg10.dtd">
<svg version="1.0" xmlns="http://www.w3.org/2000/svg"
 width="400.000000pt" height="400.000000pt" viewBox="0 0 400.000000 400.000000"
 preserveAspectRatio="xMidYMid meet">
<metadata>
Created by potrace 1.15, written by Peter Selinger 2001-2017
</metadata>
<g transform="translate(0.000000,400.000000) scale(0.100000,-0.100000)"
fill="#000000" stroke="none">
<path d="M0 2000 l0 -2000 2000 0 2000 0 0 2000 0 2000 -2000 0 -2000 0 0
-2000z m1885 1279 c115 -43 270 -186 368 -340 87 -136 158 -306 197 -473 22
-92 40 -236 29 -236 -4 0 -20 24 -37 53 -16 28 -58 90 -93 137 -46 62 -70 108
-92 170 -60 178 -173 354 -282 442 -84 68 -138 92 -212 92 -75 1 -107 -19
-143 -90 -14 -27 -26 -51 -27 -53 -1 -2 -24 2 -50 7 -26 6 -67 14 -90 17 -40
6 -41 7 -33 37 16 53 53 121 88 160 92 102 233 131 377 77z m-322 -388 c294
-76 544 -281 777 -636 l52 -80 -208 -12 c-114 -6 -269 -19 -344 -27 -174 -20
-394 -21 -497 -1 -160 30 -282 118 -342 245 -23 48 -26 68 -26 155 0 92 2 104
29 153 54 96 186 196 286 215 66 12 201 6 273 -12z m1571 -785 c178 -67 357
-245 433 -429 18 -43 27 -87 30 -142 4 -70 2 -85 -19 -125 -104 -194 -381
-162 -655 77 -153 133 -235 340 -191 484 21 72 94 139 173 160 49 13 160 1
229 -25z m-546 -35 c24 -5 48 -13 53 -18 5 -5 4 -40 -3 -88 -23 -165 43 -342
182 -486 99 -102 98 -114 -9 -105 -167 15 -353 69 -494 143 -84 44 -89 53
-143 266 l-37 148 20 26 c62 84 283 142 431 114z m-723 -71 c92 -24 155 -58
189 -103 32 -41 96 -259 103 -350 5 -61 3 -73 -27 -133 -83 -169 -319 -333
-580 -401 -228 -61 -505 -14 -643 107 -19 16 -38 30 -42 30 -4 0 -36 -18 -69
-39 -116 -73 -378 -192 -392 -179 -2 3 13 17 35 32 22 16 82 71 134 124 103
107 151 183 204 325 94 253 221 396 458 514 135 67 240 91 416 92 106 1 153
-3 214 -19z"/>
<path d="M1301 2717 c-44 -17 -107 -71 -127 -109 -12 -22 -15 -50 -12 -99 4
-82 38 -138 109 -181 86 -54 281 -73 479 -47 47 6 153 14 235 18 l150 6 -101
100 c-149 148 -289 242 -441 296 -72 26 -241 35 -292 16z"/>
<path d="M3040 1955 c-18 -19 -23 -36 -22 -70 0 -54 30 -105 101 -172 80 -77
297 -170 327 -140 19 19 -66 181 -151 290 -87 110 -200 151 -255 92z"/>
<path d="M1650 1864 c0 -56 24 -212 45 -302 24 -101 82 -242 104 -256 15 -10
91 44 140 100 125 142 78 371 -92 444 -31 14 -81 25 -124 28 -67 4 -73 3 -73
-14z"/>
<path d="M1177 1720 c-129 -86 -207 -202 -215 -318 -8 -117 47 -197 167 -243
60 -23 212 -37 274 -25 l35 7 -45 95 c-50 106 -98 282 -108 394 -9 106 -15
140 -25 140 -4 0 -42 -23 -83 -50z"/>
</g>
</svg>
